<svg width="24" height="20" viewBox="0 0 24 20" fill="none" xmlns="http://www.w3.org/2000/svg">
<path d="M0 11.2721H12H24V19.47H0V11.2721Z" fill="url(#paint0_linear_2_102)"/>
<path d="M7.5 9.258H16.5L17 11.258H7L7.5 9.258Z" fill="url(#paint1_linear_2_102)"/>
<line x1="7" y1="3.57422" x2="17" y2="3.57422" stroke="url(#paint2_linear_2_102)"/>
<line x1="7" y1="5.62366" x2="17" y2="5.62366" stroke="url(#paint3_linear_2_102)"/>
<line x1="7" y1="7.67316" x2="17" y2="7.67316" stroke="url(#paint4_linear_2_102)"/>
<rect x="4.5" y="0.5" width="15" height="15.3958" stroke="url(#paint5_linear_2_102)"/>
<line x1="17.5" y1="11.2721" x2="17.5" y2="19.47" stroke="white"/>
<path d="M6.5 11.258V11.758L6.5 19.47" stroke="white"/>
<line x1="4" y1="10.758" x2="5" y2="10.758" stroke="white"/>
<line x1="19" y1="10.758" x2="20" y2="10.758" stroke="white"/>
<defs>
<linearGradient id="paint0_linear_2_102" x1="0" y1="11.2721" x2="24.4507" y2="12.9663" gradientUnits="userSpaceOnUse">
<stop stop-color="#5BA4D9"/>
<stop offset="1" stop-color="#8DBFE3"/>
</linearGradient>
<linearGradient id="paint1_linear_2_102" x1="7" y1="9.258" x2="17.0953" y2="10.4527" gradientUnits="userSpaceOnUse">
<stop stop-color="#5BA4D9"/>
<stop offset="1" stop-color="#8DBFE3"/>
</linearGradient>
<linearGradient id="paint2_linear_2_102" x1="7" y1="4.07422" x2="16.6936" y2="6.36857" gradientUnits="userSpaceOnUse">
<stop stop-color="#5BA4D9"/>
<stop offset="1" stop-color="#8DBFE3"/>
</linearGradient>
<linearGradient id="paint3_linear_2_102" x1="7" y1="6.12366" x2="16.6936" y2="8.41801" gradientUnits="userSpaceOnUse">
<stop stop-color="#5BA4D9"/>
<stop offset="1" stop-color="#8DBFE3"/>
</linearGradient>
<linearGradient id="paint4_linear_2_102" x1="7" y1="8.17316" x2="16.6936" y2="10.4675" gradientUnits="userSpaceOnUse">
<stop stop-color="#5BA4D9"/>
<stop offset="1" stop-color="#8DBFE3"/>
</linearGradient>
<linearGradient id="paint5_linear_2_102" x1="4" y1="0" x2="20.37" y2="0.378102" gradientUnits="userSpaceOnUse">
<stop stop-color="#5BA4D9"/>
<stop offset="1" stop-color="#8DBFE3"/>
</linearGradient>
</defs>
</svg>
