<svg width="25" height="25" viewBox="0 0 25 25" fill="none" xmlns="http://www.w3.org/2000/svg">
<path d="M13.0928 9.67462H11.0928V7.67462H13.0928M13.0928 17.6746H11.0928V11.6746H13.0928M12.0928 2.67462C10.7796 2.67462 9.47919 2.93328 8.26594 3.43583C7.05268 3.93837 5.95029 4.67497 5.02171 5.60355C3.14634 7.47892 2.09277 10.0225 2.09277 12.6746C2.09277 15.3268 3.14634 17.8703 5.02171 19.7457C5.95029 20.6743 7.05268 21.4109 8.26594 21.9134C9.47919 22.416 10.7796 22.6746 12.0928 22.6746C14.7449 22.6746 17.2885 21.6211 19.1638 19.7457C21.0392 17.8703 22.0928 15.3268 22.0928 12.6746C22.0928 11.3614 21.8341 10.061 21.3316 8.84779C20.829 7.63453 20.0924 6.53214 19.1638 5.60355C18.2353 4.67497 17.1329 3.93837 15.9196 3.43583C14.7064 2.93328 13.406 2.67462 12.0928 2.67462Z" fill="black"/>
</svg>
